# xmcd
#
# Track frame offsets: 
#        150
#        16295
#        45600
#
# Disc length: 906 seconds
#
# Revision: 9
# Processed by: cddbd v1.5.2PL0 Copyright (c) Steve Scherf et al.
# Submitted via: ExactAudioCopy v0.99pb4
#
DISCID=1a038803
DTITLE=York - The Awakening
DYEAR=1999
DGENRE=Dance
TTITLE0=The Awakening (Quake Radio Edit)
TTITLE1=The Awakening (Mellow Mix)
TTITLE2=The Awakening (Natious Remix)
EXTD=
EXTT0=
EXTT1=
EXTT2=
PLAYORDER=
